<svg class="border shadow-md" viewBox="0 0 1074.7733333333333 604.5600000000001" style="width: 1074.77px; height: 604.56px;" xmlns="http://www.w3.org/2000/svg" preserveAspectRatio="none"><rect class="bg" id="bg" x="0" y="0" width="1074.7733333333333" height="604.5600000000001" fill="#F1FAEE"/><g transform="rotate(139 537.3866666666667 302.28000000000003)"><path d="M -358.26 434.56 S -189.13 320.56&#10;            0.00 434.56 169.13 350.56&#10;            358.26 434.56 527.39 292.56&#10;            716.52 434.56 809.77 350.56&#10;            1074.77 434.56 1082.03 406.56&#10;            1433.03 434.56 h 110 V 1204.56 H -358.26 Z" fill="#457B9D"/><path d="M -358.26 195.00 S -235.00 60.00&#10;            0.00 195.00 60.26 107.50&#10;            358.26 195.00 402.52 58.00&#10;            716.52 195.00 866.77 21.00&#10;            1074.77 195.00 1145.03 79.00&#10;            1433.03 195.00 h 110 V -600 H -358.26 Z" fill="#A8DADC"/></g></svg>